<svg xmlns="http://www.w3.org/2000/svg" viewBox="0 0 64 64" preserveAspectRatio="xMidYMid meet" style="width: 200px; height: 200px; transform-origin: 50% 50%; transform: scaleX(1) scaleY(1) rotate(0deg);"><defs><style>.cls-1{fill:#cfd8dd;}.cls-2{fill:#00cde2;}.cls-3{fill:#00a4b5;}</style></defs><title>Pin</title><g id="Layer_2" data-name="Layer 2" class=""><g id="Layer_1-2" data-name="Layer 1" class=""><path class="cls-1" d="M30,28,7,51A25.69,25.69,0,0,0,.27,62.9L0,64l1.1-.27A25.69,25.69,0,0,0,13,57L36,34V32l-4-4Z" style="fill:#BFCAD0"/><polygon class="cls-2" points="48 4 26 20 44 38 60 16 48 4" style="fill:#40D662"/><path class="cls-3" d="M46,2,62,18l.59-.59A4.83,4.83,0,0,0,64,14h0a4.83,4.83,0,0,0-1.41-3.41L53.41,1.41A4.83,4.83,0,0,0,50,0h0a4.83,4.83,0,0,0-3.41,1.41Z" style="fill:#015311"/><path class="cls-3" d="M26,18,46,38a5.66,5.66,0,0,1,0,8h0L18,18h0A5.66,5.66,0,0,1,26,18Z" style="fill:#015311"/></g></g></svg>